<svg xmlns="http://www.w3.org/2000/svg" viewBox="0 0 32 32" fill="none">
  <circle cx="16" cy="16" r="16" fill="#F7931A"/>
  <path d="M22.5 14.2c.3-2-1.2-3.1-3.3-3.8l.7-2.7-1.7-.4-.7 2.6c-.4-.1-.9-.2-1.3-.3l.7-2.7-1.7-.4-.7 2.7c-.4-.1-.7-.2-1-.2l-2.3-.6-.4 1.8s1.2.3 1.2.3c.7.2.8.6.8 1l-.8 3.2c0 0 .1 0 .1 0l-.1 0-1.1 4.5c-.1.2-.3.5-.7.4 0 0-1.2-.3-1.2-.3l-.8 1.9 2.2.5c.4.1.8.2 1.2.3l-.7 2.8 1.7.4.7-2.7c.5.1.9.2 1.3.3l-.7 2.7 1.7.4.7-2.8c2.9.5 5.1.3 6-2.3.7-2.1 0-3.3-1.5-4.1 1.1-.3 1.9-1 2.1-2.5zm-3.8 5.3c-.5 2.1-4.1 1-5.2.7l.9-3.7c1.2.3 4.9.9 4.3 3zm.5-5.3c-.5 1.9-3.4.9-4.4.7l.8-3.4c1 .3 4.1.7 3.6 2.7z" fill="white"/>
</svg>
